<svg id="visual" viewBox="0 0 900 600" width="900" height="600" xmlns="http://www.w3.org/2000/svg" xmlns:xlink="http://www.w3.org/1999/xlink" version="1.1"><path d="M0 109L13.7 103C27.3 97 54.7 85 82 85C109.3 85 136.7 97 163.8 96C191 95 218 81 245.2 73C272.3 65 299.7 63 327 70C354.3 77 381.7 93 409 98C436.3 103 463.7 97 491 88C518.3 79 545.7 67 573 69C600.3 71 627.7 87 654.8 98C682 109 709 115 736.2 107C763.3 99 790.7 77 818 71C845.3 65 872.7 75 886.3 80L900 85L900 0L886.3 0C872.7 0 845.3 0 818 0C790.7 0 763.3 0 736.2 0C709 0 682 0 654.8 0C627.7 0 600.3 0 573 0C545.7 0 518.3 0 491 0C463.7 0 436.3 0 409 0C381.7 0 354.3 0 327 0C299.7 0 272.3 0 245.2 0C218 0 191 0 163.8 0C136.7 0 109.3 0 82 0C54.7 0 27.3 0 13.7 0L0 0Z" fill="#ff7fa8"></path><path d="M0 163L13.7 158C27.3 153 54.7 143 82 148C109.3 153 136.7 173 163.8 178C191 183 218 173 245.2 167C272.3 161 299.7 159 327 164C354.3 169 381.7 181 409 187C436.3 193 463.7 193 491 184C518.3 175 545.7 157 573 158C600.3 159 627.7 179 654.8 183C682 187 709 175 736.2 158C763.3 141 790.7 119 818 123C845.3 127 872.7 157 886.3 172L900 187L900 83L886.3 78C872.7 73 845.3 63 818 69C790.7 75 763.3 97 736.2 105C709 113 682 107 654.8 96C627.7 85 600.3 69 573 67C545.7 65 518.3 77 491 86C463.7 95 436.3 101 409 96C381.7 91 354.3 75 327 68C299.7 61 272.3 63 245.2 71C218 79 191 93 163.8 94C136.7 95 109.3 83 82 83C54.7 83 27.3 95 13.7 101L0 107Z" fill="#ff5e91"></path><path d="M0 271L13.7 295C27.3 319 54.7 367 82 389C109.3 411 136.7 407 163.8 394C191 381 218 359 245.2 334C272.3 309 299.7 281 327 279C354.3 277 381.7 301 409 314C436.3 327 463.7 329 491 315C518.3 301 545.7 271 573 272C600.3 273 627.7 305 654.8 309C682 313 709 289 736.2 276C763.3 263 790.7 261 818 271C845.3 281 872.7 303 886.3 314L900 325L900 185L886.3 170C872.7 155 845.3 125 818 121C790.7 117 763.3 139 736.2 156C709 173 682 185 654.8 181C627.7 177 600.3 157 573 156C545.7 155 518.3 173 491 182C463.7 191 436.3 191 409 185C381.7 179 354.3 167 327 162C299.7 157 272.3 159 245.2 165C218 171 191 181 163.8 176C136.7 171 109.3 151 82 146C54.7 141 27.3 151 13.7 156L0 161Z" fill="#ff3079"></path><path d="M0 499L13.7 503C27.3 507 54.7 515 82 514C109.3 513 136.7 503 163.8 498C191 493 218 493 245.2 496C272.3 499 299.7 505 327 513C354.3 521 381.7 531 409 533C436.3 535 463.7 529 491 514C518.3 499 545.7 475 573 475C600.3 475 627.7 499 654.8 514C682 529 709 535 736.2 528C763.3 521 790.7 501 818 490C845.3 479 872.7 477 886.3 476L900 475L900 323L886.3 312C872.7 301 845.3 279 818 269C790.7 259 763.3 261 736.2 274C709 287 682 311 654.8 307C627.7 303 600.3 271 573 270C545.7 269 518.3 299 491 313C463.7 327 436.3 325 409 312C381.7 299 354.3 275 327 277C299.7 279 272.3 307 245.2 332C218 357 191 379 163.8 392C136.7 405 109.3 409 82 387C54.7 365 27.3 317 13.7 293L0 269Z" fill="#df2768"></path><path d="M0 601L13.7 601C27.3 601 54.7 601 82 601C109.3 601 136.7 601 163.8 601C191 601 218 601 245.2 601C272.3 601 299.7 601 327 601C354.3 601 381.7 601 409 601C436.3 601 463.7 601 491 601C518.3 601 545.7 601 573 601C600.3 601 627.7 601 654.8 601C682 601 709 601 736.2 601C763.3 601 790.7 601 818 601C845.3 601 872.7 601 886.3 601L900 601L900 473L886.3 474C872.7 475 845.3 477 818 488C790.7 499 763.3 519 736.2 526C709 533 682 527 654.8 512C627.7 497 600.3 473 573 473C545.7 473 518.3 497 491 512C463.7 527 436.3 533 409 531C381.7 529 354.3 519 327 511C299.7 503 272.3 497 245.2 494C218 491 191 491 163.8 496C136.7 501 109.3 511 82 512C54.7 513 27.3 505 13.7 501L0 497Z" fill="#bf1e57"></path></svg>